<svg id="Symbol_Color" xmlns="http://www.w3.org/2000/svg" viewBox="0 0 200 200"><defs><style>.cls-1{fill:#8759f2}.cls-2{fill:#ff3e80}.cls-3{fill:#ffc300}.cls-4{fill:#00d4e6}</style></defs><title>v2-logo-mark-login-pg</title><path class="cls-1" d="M101.15 126L65.09 63.51H28.8a19.34 19.34 0 0 0-16.72 29l54.2 93.9a19.34 19.34 0 0 0 33.46 0L134.61 126a19.34 19.34 0 0 1-33.46 0z"/><path class="cls-2" d="M137.22 63.51H65.09L101.15 126a19.34 19.34 0 0 0 33.46 0l19.33-33.5a19.34 19.34 0 0 0-16.72-28.99z"/><path class="cls-3" d="M172.09 3.13H63.67A19.34 19.34 0 0 0 47 32.09l18.09 31.42h72.13a19.34 19.34 0 0 1 16.71 29l34.87-60.4a19.34 19.34 0 0 0-16.71-28.98z"/><path class="cls-4" d="M47 32.09a19.31 19.31 0 0 1 0-19.3L12.1 73.18a19.31 19.31 0 0 1 16.7-9.66h36.29z"/></svg>